{
	"asset":{
		"version":"2.0",
		"generator":"Maxon Cinema 4D 2024.4.0 (#200000219)"
	},
	"scenes":[{
		"nodes":[0]
	}],
	"bufferViews":[{
		"buffer":0,
		"byteOffset":0,
		"byteLength":8064,
		"target":34963
	},
	{
		"buffer":0,
		"byteOffset":8064,
		"byteLength":129024,
		"target":34962,
		"byteStride":32
	}],
	"nodes":[{
		"name":"Cylindre",
		"mesh":0
	}],
	"meshes":[{
		"name":"Cylindre",
		"primitives":[{
			"attributes":{
				"POSITION":1,
				"NORMAL":2,
				"TEXCOORD_0":3
			},
			"indices":0
		}]
	}],
	"accessors":[{
		"bufferView":0,
		"componentType":5123,
		"type":"SCALAR",
		"count":4032,
		"byteOffset":0,
		"min":[0],
		"max":[4031]
	},
	{
		"bufferView":1,
		"componentType":5126,
		"type":"VEC3",
		"count":4032,
		"byteOffset":0,
		"min":[-0.1550000011920929,
		-0.44999998807907107,
		-0.44999998807907107],
		"max":[0.1550000011920929,
		0.44999998807907107,
		0.44999998807907107]
	},
	{
		"bufferView":1,
		"componentType":5126,
		"type":"VEC3",
		"count":4032,
		"byteOffset":12,
		"min":[-1.0,
		-1.0,
		-1.0],
		"max":[1.0,
		1.0,
		1.0]
	},
	{
		"bufferView":1,
		"componentType":5126,
		"type":"VEC2",
		"count":4032,
		"byteOffset":24,
		"min":[0.0,
		-0.13401299715042115],
		"max":[1.0,
		1.1340129375457764]
	}],
	"buffers":[{
		"uri":"data:application/octet-stream;base64,",
		"byteLength":137088
	}]
}