{
	"asset":{
		"generator":"Khronos glTF Blender I/O v5.0.21",
		"version":"2.0"
	},
	"scene":0,
	"scenes":[
		{
			"name":"Scene",
			"nodes":[
				0
			]
		}
	],
	"nodes":[
		{
			"mesh":0,
			"name":"Plane"
		}
	],
	"meshes":[
		{
			"name":"Plane",
			"primitives":[
				{
					"attributes":{
						"POSITION":0,
						"NORMAL":1
					},
					"indices":2
				}
			]
		}
	],
	"accessors":[
		{
			"bufferView":0,
			"componentType":5126,
			"count":6154,
			"max":[
				0.756308913230896,
				4.275937080383301,
				1.366335153579712
			],
			"min":[
				-0.7029494047164917,
				-0.017591699957847595,
				-1.3632551431655884
			],
			"type":"VEC3"
		},
		{
			"bufferView":1,
			"componentType":5126,
			"count":6154,
			"type":"VEC3"
		},
		{
			"bufferView":2,
			"componentType":5123,
			"count":6156,
			"type":"SCALAR"
		}
	],
	"bufferViews":[
		{
			"buffer":0,
			"byteLength":73848,
			"byteOffset":0,
			"target":34962
		},
		{
			"buffer":0,
			"byteLength":73848,
			"byteOffset":73848,
			"target":34962
		},
		{
			"buffer":0,
			"byteLength":12312,
			"byteOffset":147696,
			"target":34963
		}
	],
	"buffers":[
		{
			"byteLength":160008,
			"uri":"model.bin"
		}
	]
}
