<svg preserveAspectRatio="none" width="100%" height="100%" overflow="visible" style="display: block;" viewBox="0 0 500 200" fill="none" xmlns="http://www.w3.org/2000/svg">
<g id="logo_adhoc_noiro 1">
<path id="Vector" d="M428.497 81.4004V115.22H458.108V106.5H476.978V135.24H409.628V63.3604H476.978V90.1204H458.108V81.4004H428.497Z" fill="var(--fill-0, #301C1A)"/>
<path id="Vector_2" d="M71.5027 58.58V63.36H23.0222V135.24H90.3718V58.58H71.5027ZM71.5027 116.22H41.8913V82.38H71.5027V116.22Z" fill="var(--fill-0, #301C1A)"/>
<path id="Vector_3" d="M148.357 33.5V94.32H99.8762V166.84H167.226V33.5H148.357ZM148.357 148.2H118.745V114.36H148.357V148.2Z" fill="var(--fill-0, #301C1A)"/>
<path id="Vector_4" d="M274.749 93.9596V33.1396H255.92V166.5H274.749V114.02H304.42V166.5H323.289V93.9797H274.749V93.9596Z" fill="var(--fill-0, #301C1A)"/>
<path id="Vector_5" d="M332.774 33.3203V105.84H400.124V33.3203H332.774ZM381.455 86.5003H351.643V52.6603H381.455V86.5003Z" fill="var(--fill-0, #301C1A)"/>
<path id="Vector_6" d="M246.436 33.3203H176.71V105.84H246.436V33.3203Z" fill="var(--fill-0, #FF5020)"/>
</g>
</svg>
